<svg width="187" height="48" viewBox="0 0 187 48" fill="none" xmlns="http://www.w3.org/2000/svg">
<g clip-path="url(#clip0_84_7631)">
<path d="M121.698 46.8438C121.475 46.8438 121.291 46.8073 121.148 46.7354C121.004 46.6635 120.89 46.5831 120.81 46.4966C120.73 46.4089 120.674 46.3419 120.643 46.2932H120.597V46.778H119.725V41.7941H120.597V43.7884H120.643C120.674 43.736 120.73 43.6666 120.81 43.5789C120.89 43.4911 121.004 43.4132 121.148 43.3425C121.291 43.2731 121.475 43.2377 121.698 43.2377C121.96 43.2377 122.188 43.2889 122.38 43.3912C122.573 43.4936 122.733 43.6312 122.859 43.8042C122.986 43.9772 123.081 44.1709 123.144 44.3841C123.208 44.5986 123.239 44.8166 123.239 45.0396C123.239 45.2625 123.208 45.4818 123.144 45.695C123.081 45.9094 122.986 46.1031 122.859 46.2749C122.733 46.4479 122.573 46.5856 122.38 46.6879C122.188 46.7902 121.96 46.8414 121.698 46.8414V46.8438ZM121.469 46.1287C121.67 46.1287 121.836 46.0751 121.967 45.9679C122.099 45.8607 122.196 45.7242 122.262 45.5586C122.328 45.3929 122.361 45.2199 122.361 45.0408C122.361 44.8617 122.328 44.6887 122.262 44.523C122.196 44.3573 122.098 44.2209 121.967 44.1137C121.836 44.0065 121.67 43.9529 121.469 43.9529C121.268 43.9529 121.109 44.0065 120.977 44.1137C120.845 44.2209 120.748 44.3573 120.682 44.523C120.616 44.6887 120.583 44.8617 120.583 45.0408C120.583 45.2199 120.616 45.3929 120.682 45.5586C120.748 45.7242 120.847 45.8619 120.977 45.9679C121.109 46.0751 121.272 46.1287 121.469 46.1287Z" fill="white"/>
<path d="M123.869 48.0572C123.756 48.0572 123.627 48.0487 123.482 48.0316V47.3165C123.613 47.3299 123.722 47.336 123.809 47.336C124.032 47.336 124.218 47.2995 124.364 47.2276C124.51 47.1557 124.634 47.0205 124.734 46.8243L123.429 43.3023H124.315L125.187 45.7815L126.046 43.3023H126.932L125.66 46.6928C125.485 47.1557 125.26 47.4993 124.985 47.7222C124.71 47.9452 124.338 48.0572 123.87 48.0572H123.869Z" fill="white"/>
<path d="M128.762 41.9244H130.506C130.9 41.9244 131.245 41.9927 131.539 42.1315C131.834 42.2692 132.08 42.4544 132.278 42.6859C132.474 42.9173 132.622 43.178 132.72 43.4668C132.819 43.7555 132.867 44.0503 132.867 44.3525C132.867 44.6546 132.819 44.9494 132.72 45.2381C132.621 45.5269 132.474 45.7864 132.278 46.0191C132.08 46.2505 131.835 46.4357 131.539 46.5734C131.245 46.711 130.9 46.7805 130.506 46.7805H128.762V41.9244ZM130.467 42.7054H129.654V45.991H130.467C130.808 45.991 131.09 45.9118 131.313 45.7523C131.536 45.5927 131.701 45.3868 131.811 45.1358C131.921 44.8848 131.976 44.6205 131.976 44.3452C131.976 44.0698 131.921 43.8128 131.811 43.5618C131.701 43.3108 131.536 43.1049 131.313 42.9454C131.09 42.7858 130.807 42.7066 130.467 42.7066V42.7054Z" fill="white"/>
<path d="M133.641 48.0572C133.528 48.0572 133.399 48.0487 133.254 48.0316V47.3165C133.385 47.3299 133.494 47.336 133.581 47.336C133.804 47.336 133.989 47.2995 134.136 47.2276C134.282 47.1557 134.406 47.0205 134.506 46.8243L133.201 43.3023H134.087L134.959 45.7815L135.818 43.3023H136.704L135.432 46.6928C135.256 47.1557 135.032 47.4993 134.757 47.7222C134.482 47.9452 134.11 48.0572 133.642 48.0572H133.641Z" fill="white"/>
<path d="M137.124 46.778V43.3023H137.996V43.8006H138.035C138.071 43.7397 138.124 43.6641 138.2 43.574C138.274 43.4838 138.376 43.4059 138.508 43.3376C138.64 43.2694 138.805 43.2365 139.006 43.2365C139.273 43.2365 139.492 43.2962 139.665 43.4168C139.838 43.5374 139.967 43.6958 140.053 43.892C140.138 44.0881 140.181 44.3013 140.181 44.5279V46.7768H139.308V44.6448C139.308 44.4572 139.256 44.2952 139.151 44.16C139.046 44.0247 138.889 43.9565 138.679 43.9565C138.516 43.9565 138.386 43.9967 138.285 44.0783C138.184 44.1588 138.111 44.2635 138.066 44.3902C138.019 44.5169 137.998 44.6509 137.998 44.7898V46.7768H137.125L137.124 46.778Z" fill="white"/>
<path d="M142.292 43.2365C142.515 43.2365 142.699 43.2731 142.843 43.3449C142.986 43.4168 143.101 43.496 143.184 43.5813C143.267 43.6666 143.324 43.7348 143.354 43.7884H143.393V43.3035H144.266V46.7793H143.393V46.2944H143.354C143.324 46.3468 143.267 46.4174 143.184 46.5039C143.101 46.5916 142.988 46.6696 142.843 46.7403C142.699 46.8097 142.515 46.845 142.292 46.845C142.034 46.845 141.808 46.7939 141.617 46.6915C141.425 46.5892 141.264 46.4515 141.135 46.2786C141.005 46.1056 140.909 45.9118 140.846 45.6987C140.782 45.4842 140.751 45.2662 140.751 45.0432C140.751 44.8203 140.782 44.6022 140.846 44.3878C140.909 44.1734 141.005 43.9797 141.135 43.8079C141.264 43.6349 141.425 43.4972 141.617 43.3949C141.809 43.2926 142.035 43.2414 142.292 43.2414V43.2365ZM142.521 43.9516C142.325 43.9516 142.159 44.0053 142.026 44.1125C141.892 44.2197 141.794 44.3561 141.728 44.5218C141.662 44.6875 141.629 44.8605 141.629 45.0396C141.629 45.2187 141.662 45.3916 141.728 45.5573C141.794 45.723 141.892 45.8607 142.026 45.9667C142.159 46.0739 142.325 46.1275 142.521 46.1275C142.717 46.1275 142.882 46.0739 143.013 45.9667C143.145 45.8595 143.242 45.723 143.308 45.5573C143.374 45.3916 143.407 45.2187 143.407 45.0396C143.407 44.8605 143.374 44.6875 143.308 44.5218C143.242 44.3561 143.143 44.2197 143.013 44.1125C142.882 44.0053 142.718 43.9516 142.521 43.9516Z" fill="white"/>
<path d="M144.928 46.778V43.3023H145.801V43.7872H145.833C145.877 43.708 145.938 43.6264 146.017 43.5411C146.097 43.4558 146.198 43.3839 146.322 43.3242C146.446 43.2658 146.601 43.2353 146.784 43.2353C147.042 43.2353 147.254 43.2962 147.42 43.4193C147.585 43.5423 147.708 43.6995 147.786 43.892H147.8C147.887 43.7263 148.017 43.5752 148.19 43.44C148.363 43.3047 148.593 43.2365 148.882 43.2365C149.126 43.2365 149.331 43.2926 149.494 43.4034C149.659 43.5143 149.781 43.6641 149.861 43.853C149.941 44.0406 149.983 44.244 149.983 44.4633V46.778H149.111V44.6461C149.111 44.445 149.062 44.2794 148.963 44.1514C148.865 44.0223 148.72 43.9577 148.527 43.9577C148.374 43.9577 148.25 43.9979 148.157 44.0796C148.063 44.16 147.995 44.2623 147.953 44.3841C147.912 44.5072 147.891 44.6314 147.891 44.7581V46.778H147.019V44.6461C147.019 44.445 146.97 44.2794 146.875 44.1514C146.779 44.0223 146.633 43.9577 146.435 43.9577C146.282 43.9577 146.159 43.9979 146.065 44.0796C145.971 44.16 145.903 44.2635 145.861 44.3878C145.82 44.5121 145.799 44.6363 145.799 44.7581V46.778H144.927H144.928Z" fill="white"/>
<path d="M151.159 42.765C151.005 42.765 150.88 42.7151 150.781 42.614C150.682 42.5129 150.633 42.3935 150.633 42.2534C150.633 42.1133 150.682 41.9939 150.781 41.8928C150.88 41.7916 151.005 41.7417 151.159 41.7417C151.312 41.7417 151.439 41.7916 151.539 41.8928C151.64 41.9939 151.69 42.1133 151.69 42.2534C151.69 42.3935 151.64 42.5141 151.539 42.614C151.438 42.7139 151.311 42.765 151.159 42.765ZM150.726 46.778V43.3023H151.598V46.778H150.726Z" fill="white"/>
<path d="M154.064 46.8438C153.767 46.8438 153.506 46.7927 153.283 46.6903C153.06 46.588 152.874 46.4503 152.725 46.2773C152.577 46.1043 152.466 45.9106 152.394 45.6974C152.322 45.483 152.285 45.2649 152.285 45.042C152.285 44.8191 152.322 44.601 152.394 44.3866C152.466 44.1722 152.575 43.9784 152.722 43.8067C152.868 43.6337 153.053 43.496 153.276 43.3937C153.499 43.2913 153.761 43.2402 154.063 43.2402C154.365 43.2402 154.607 43.284 154.804 43.3718C155 43.4595 155.157 43.5691 155.273 43.6995C155.388 43.831 155.475 43.9614 155.532 44.0893C155.589 44.2184 155.634 44.3707 155.67 44.5449H154.85C154.815 44.4268 154.771 44.3281 154.718 44.2501C154.666 44.1722 154.588 44.1015 154.486 44.0406C154.383 43.9797 154.247 43.9492 154.076 43.9492C153.875 43.9492 153.706 44.0004 153.568 44.1039C153.431 44.2063 153.327 44.3415 153.256 44.5072C153.187 44.6729 153.152 44.8532 153.152 45.0444C153.152 45.2357 153.187 45.416 153.256 45.5817C153.326 45.7474 153.431 45.8826 153.568 45.9849C153.706 46.0873 153.875 46.1385 154.076 46.1385C154.247 46.1385 154.383 46.108 154.486 46.0471C154.588 45.9862 154.666 45.9155 154.718 45.8375C154.771 45.7583 154.815 45.6609 154.85 45.5427H155.67C155.634 45.7181 155.589 45.8692 155.532 45.9983C155.475 46.1275 155.388 46.2578 155.273 46.3882C155.157 46.5198 155.001 46.6282 154.804 46.7159C154.606 46.8036 154.36 46.8475 154.063 46.8475L154.064 46.8438Z" fill="white"/>
<path d="M159.428 46.8438C159.126 46.8438 158.869 46.8061 158.655 46.733C158.44 46.6587 158.262 46.5624 158.12 46.4442C157.977 46.3261 157.865 46.2006 157.782 46.0666C157.699 45.9338 157.637 45.8071 157.596 45.6889C157.554 45.5707 157.52 45.4379 157.495 45.2893H158.4C158.422 45.3941 158.452 45.4867 158.491 45.5683C158.53 45.6487 158.589 45.7291 158.666 45.8071C158.742 45.8863 158.845 45.9521 158.974 46.0069C159.103 46.0617 159.264 46.0885 159.456 46.0885C159.753 46.0885 159.98 46.0215 160.135 45.8887C160.289 45.7559 160.367 45.5902 160.367 45.3941C160.367 45.2284 160.309 45.0956 160.191 44.9969C160.073 44.8982 159.898 44.8251 159.666 44.7776L159.022 44.64C158.773 44.5876 158.54 44.5084 158.324 44.4036C158.108 44.2989 157.935 44.1563 157.803 43.9772C157.671 43.7981 157.607 43.5679 157.607 43.2889C157.607 43.0099 157.68 42.7419 157.826 42.5287C157.972 42.3143 158.175 42.1498 158.433 42.0341C158.691 41.9183 158.992 41.8599 159.338 41.8599C159.684 41.8599 159.937 41.9086 160.152 42.0036C160.366 42.0999 160.538 42.218 160.667 42.3581C160.796 42.4982 160.891 42.6383 160.952 42.7784C161.013 42.9186 161.063 43.0842 161.103 43.2767H160.231C160.196 43.1415 160.148 43.0294 160.087 42.9417C160.026 42.854 159.934 42.7772 159.812 42.709C159.689 42.6408 159.526 42.6079 159.32 42.6079C159.027 42.6079 158.814 42.6737 158.68 42.804C158.546 42.9356 158.48 43.0769 158.48 43.2304C158.48 43.3839 158.541 43.5106 158.664 43.5971C158.786 43.6848 158.951 43.7519 159.156 43.8006L159.845 43.9443C160.103 44.0016 160.339 44.0869 160.553 44.2002C160.767 44.3135 160.938 44.4633 161.064 44.6497C161.191 44.8361 161.254 45.0664 161.254 45.3417C161.254 45.617 161.185 45.8753 161.045 46.1019C160.905 46.3297 160.699 46.51 160.428 46.6428C160.157 46.7768 159.825 46.8426 159.432 46.8426L159.428 46.8438Z" fill="white"/>
<path d="M163.481 46.8438C163.101 46.8438 162.777 46.7586 162.51 46.588C162.244 46.4174 162.041 46.1957 161.904 45.9228C161.766 45.6499 161.697 45.3551 161.697 45.0408C161.697 44.7265 161.766 44.4316 161.904 44.1588C162.041 43.8859 162.244 43.6641 162.51 43.4936C162.777 43.323 163.101 43.2377 163.481 43.2377C163.861 43.2377 164.19 43.323 164.455 43.4936C164.719 43.6641 164.92 43.8859 165.058 44.1588C165.195 44.4316 165.265 44.7265 165.265 45.0408C165.265 45.3551 165.195 45.6499 165.058 45.9228C164.92 46.1957 164.719 46.4174 164.455 46.588C164.19 46.7586 163.865 46.8438 163.481 46.8438ZM163.481 46.1165C163.678 46.1165 163.843 46.0666 163.976 45.9655C164.109 45.8643 164.211 45.7328 164.281 45.5683C164.35 45.4038 164.385 45.2284 164.385 45.0408C164.385 44.8532 164.35 44.6716 164.281 44.5096C164.211 44.3476 164.109 44.2172 163.976 44.1161C163.842 44.015 163.678 43.965 163.481 43.965C163.285 43.965 163.124 44.015 162.989 44.1161C162.854 44.2172 162.75 44.3476 162.681 44.5096C162.612 44.6716 162.576 44.8483 162.576 45.0408C162.576 45.2333 162.612 45.4051 162.681 45.5683C162.75 45.7328 162.854 45.8643 162.989 45.9655C163.124 46.0666 163.289 46.1165 163.481 46.1165Z" fill="white"/>
<path d="M165.902 46.778L165.908 41.7941H166.774V46.778H165.902Z" fill="white"/>
<path d="M168.591 46.8438C168.228 46.8438 167.954 46.733 167.767 46.51C167.581 46.2871 167.488 46.0008 167.488 45.6511V43.3035H168.354V45.5074C168.354 45.695 168.404 45.8448 168.506 45.9569C168.607 46.069 168.748 46.1238 168.932 46.1238C169.094 46.1238 169.224 46.0824 169.325 45.9996C169.427 45.9167 169.5 45.8095 169.545 45.6779C169.591 45.5464 169.614 45.4111 169.614 45.271V43.3035H170.486V46.7793H169.614V46.281H169.575C169.531 46.3602 169.469 46.443 169.389 46.5307C169.308 46.6185 169.202 46.6928 169.074 46.7537C168.945 46.8146 168.785 46.845 168.592 46.845L168.591 46.8438Z" fill="white"/>
<path d="M172.702 46.8438C172.466 46.8438 172.271 46.8085 172.119 46.7391C171.965 46.6696 171.847 46.577 171.762 46.4637C171.677 46.3504 171.617 46.2249 171.582 46.0897C171.546 45.9545 171.529 45.8205 171.529 45.6901V44.004H170.932V43.3023H171.529V42.4361H172.402V43.3023H173.182V44.004H172.402V45.6694C172.402 45.9801 172.576 46.1348 172.927 46.1348C173.009 46.1348 173.123 46.1238 173.268 46.1019V46.7841C173.045 46.8231 172.857 46.8426 172.704 46.8426L172.702 46.8438Z" fill="white"/>
<path d="M174.342 42.765C174.189 42.765 174.063 42.7151 173.965 42.614C173.866 42.5129 173.817 42.3935 173.817 42.2534C173.817 42.1133 173.866 41.9939 173.965 41.8928C174.063 41.7916 174.189 41.7417 174.342 41.7417C174.496 41.7417 174.622 41.7916 174.722 41.8928C174.823 41.9939 174.873 42.1133 174.873 42.2534C174.873 42.3935 174.823 42.5141 174.722 42.614C174.621 42.7139 174.495 42.765 174.342 42.765ZM173.91 46.778V43.3023H174.782V46.778H173.91Z" fill="white"/>
<path d="M177.254 46.8438C176.874 46.8438 176.55 46.7586 176.283 46.588C176.016 46.4174 175.814 46.1957 175.676 45.9228C175.539 45.6499 175.469 45.3551 175.469 45.0408C175.469 44.7265 175.539 44.4316 175.676 44.1588C175.814 43.8859 176.016 43.6641 176.283 43.4936C176.55 43.323 176.874 43.2377 177.254 43.2377C177.634 43.2377 177.963 43.323 178.227 43.4936C178.492 43.6641 178.693 43.8859 178.83 44.1588C178.968 44.4316 179.038 44.7265 179.038 45.0408C179.038 45.3551 178.968 45.6499 178.83 45.9228C178.693 46.1957 178.492 46.4174 178.227 46.588C177.963 46.7586 177.638 46.8438 177.254 46.8438ZM177.254 46.1165C177.45 46.1165 177.616 46.0666 177.749 45.9655C177.881 45.8643 177.984 45.7328 178.053 45.5683C178.123 45.4038 178.158 45.2284 178.158 45.0408C178.158 44.8532 178.123 44.6716 178.053 44.5096C177.984 44.3476 177.881 44.2172 177.749 44.1161C177.615 44.015 177.45 43.965 177.254 43.965C177.058 43.965 176.897 44.015 176.762 44.1161C176.627 44.2172 176.523 44.3476 176.454 44.5096C176.384 44.6716 176.349 44.8483 176.349 45.0408C176.349 45.2333 176.384 45.4051 176.454 45.5683C176.523 45.7328 176.627 45.8643 176.762 45.9655C176.897 46.0666 177.061 46.1165 177.254 46.1165Z" fill="white"/>
<path d="M179.609 46.778V43.3023H180.481V43.8006H180.52C180.555 43.7397 180.609 43.6641 180.685 43.574C180.759 43.4838 180.861 43.4059 180.993 43.3376C181.124 43.2694 181.29 43.2365 181.491 43.2365C181.758 43.2365 181.977 43.2962 182.15 43.4168C182.323 43.5374 182.452 43.6958 182.538 43.892C182.623 44.0881 182.666 44.3013 182.666 44.5279V46.7768H181.793V44.6448C181.793 44.4572 181.741 44.2952 181.636 44.16C181.531 44.0247 181.374 43.9565 181.163 43.9565C181.001 43.9565 180.871 43.9967 180.77 44.0783C180.669 44.1588 180.596 44.2635 180.551 44.3902C180.504 44.5169 180.482 44.6509 180.482 44.7898V46.7768H179.61L179.609 46.778Z" fill="white"/>
<path d="M184.717 46.8438C184.433 46.8438 184.199 46.8061 184.015 46.7293C183.831 46.6526 183.686 46.5563 183.579 46.4406C183.472 46.3248 183.393 46.2103 183.34 46.0958C183.288 45.9825 183.247 45.8485 183.216 45.6962H184.042C184.073 45.7925 184.112 45.8729 184.157 45.935C184.203 45.9983 184.274 46.0544 184.37 46.1019C184.466 46.1506 184.593 46.1738 184.75 46.1738C184.938 46.1738 185.074 46.1336 185.157 46.052C185.24 45.9715 185.281 45.8802 185.281 45.7803C185.281 45.6804 185.245 45.6061 185.173 45.5476C185.101 45.4891 184.995 45.444 184.855 45.4136L184.376 45.3149C184.184 45.2759 184.004 45.2174 183.839 45.1407C183.673 45.0639 183.537 44.9592 183.432 44.8264C183.327 44.6936 183.275 44.5218 183.275 44.311C183.275 44.0004 183.393 43.7433 183.629 43.5399C183.866 43.3364 184.187 43.2353 184.593 43.2353C184.851 43.2353 185.064 43.2706 185.232 43.3401C185.401 43.4095 185.536 43.4972 185.639 43.602C185.742 43.7068 185.818 43.8115 185.868 43.9163C185.918 44.0211 185.959 44.1454 185.99 44.2903H185.19C185.164 44.2075 185.13 44.1393 185.089 44.0869C185.047 44.0345 184.986 43.987 184.905 43.9456C184.824 43.9041 184.716 43.8834 184.581 43.8834C184.397 43.8834 184.266 43.9224 184.191 44.0016C184.114 44.0808 184.076 44.1636 184.076 44.2513C184.076 44.3476 184.118 44.4219 184.201 44.4743C184.283 44.5267 184.391 44.5657 184.522 44.5925L184.974 44.6911C185.298 44.7569 185.564 44.8702 185.771 45.0323C185.978 45.1943 186.083 45.4282 186.083 45.734C186.083 45.9399 186.029 46.1263 185.922 46.2944C185.815 46.4625 185.66 46.5965 185.457 46.694C185.253 46.7927 185.007 46.8414 184.718 46.8414L184.717 46.8438Z" fill="white"/>
<path d="M67.6706 35.3591C66.2379 35.3591 65.0099 35.1824 63.9939 34.8291C62.9742 34.4758 62.1299 34.0202 61.4526 33.4573C60.7789 32.8969 60.2428 32.3012 59.8469 31.6665C59.4509 31.0342 59.1549 30.436 58.9588 29.8756C58.7614 29.3152 58.6006 28.6805 58.4775 27.9775H62.7768C62.8828 28.4746 63.0266 28.9181 63.2142 29.3006C63.4006 29.6843 63.6747 30.0645 64.0414 30.4385C64.4032 30.8125 64.893 31.1304 65.507 31.3875C66.1173 31.6482 66.8824 31.7773 67.7961 31.7773C69.2081 31.7773 70.2826 31.4594 71.0197 30.8283C71.7567 30.196 72.1246 29.4115 72.1246 28.477C72.1246 27.69 71.8432 27.0602 71.2828 26.5936C70.7224 26.1258 69.8891 25.7786 68.7902 25.552L65.7372 24.899C64.5531 24.6504 63.4469 24.2764 62.4174 23.7794C61.3856 23.2823 60.5632 22.605 59.9395 21.7546C59.3169 20.9042 59.0038 19.8139 59.0038 18.4848C59.0038 17.1556 59.351 15.8886 60.0467 14.8738C60.7411 13.8553 61.7035 13.0744 62.9291 12.5225C64.1559 11.9706 65.5874 11.6953 67.2296 11.6953C68.8719 11.6953 70.0755 11.9231 71.094 12.3812C72.1137 12.8393 72.9275 13.3997 73.5378 14.0636C74.1494 14.7288 74.6014 15.3928 74.8926 16.058C75.1837 16.7231 75.4225 17.5101 75.6089 18.4238H71.4643C71.2962 17.7794 71.0696 17.2494 70.7785 16.8364C70.4873 16.4198 70.0499 16.0519 69.4688 15.7315C68.8877 15.411 68.1092 15.249 67.1322 15.249C65.7385 15.249 64.7248 15.5609 64.0926 16.1834C63.4578 16.806 63.1423 17.4797 63.1423 18.2082C63.1423 18.9367 63.4335 19.5373 64.0146 19.9516C64.5957 20.3682 65.3754 20.6886 66.3525 20.9164L69.6247 21.6023C70.8491 21.8716 71.9711 22.276 72.9884 22.8182C74.0081 23.3579 74.8158 24.0693 75.4189 24.9501C76.0207 25.8334 76.324 26.9262 76.324 28.2358C76.324 29.5455 75.9902 30.7698 75.3251 31.8468C74.6599 32.9274 73.6828 33.7838 72.3951 34.4161C71.1062 35.0508 69.5273 35.3652 67.6572 35.3652L67.667 35.3591H67.6706Z" fill="white"/>
<path d="M84.5401 35.3615C83.418 35.3615 82.4909 35.1934 81.7612 34.8632C81.0314 34.5306 80.465 34.0957 80.0593 33.5524C79.6536 33.0127 79.3661 32.4182 79.2004 31.7737C79.0323 31.1292 78.9519 30.4957 78.9519 29.872V14.6776H83.1025V18.4238H86.8183V22.1384H83.1025V29.7794C83.1025 31.2547 83.9346 31.993 85.6 31.993C85.9959 31.993 86.5368 31.9418 87.2239 31.837V35.0825C86.1616 35.2689 85.2674 35.3652 84.5401 35.3652V35.3615Z" fill="white"/>
<path d="M90.0442 35.0862V18.4238H94.4203V20.953C94.6079 20.5156 94.8674 20.0904 95.2 19.6738C95.5326 19.2584 95.9906 18.9148 96.573 18.6443C97.1553 18.3739 97.9033 18.2387 98.8195 18.2387C99.2763 18.2387 99.9001 18.291 100.442 18.3946V23.074C99.8392 22.9497 99.2983 22.8864 98.8195 22.8864C97.3429 22.8864 96.2404 23.2872 95.5131 24.0876C94.7845 24.888 94.4215 26.194 94.4215 28.0031V35.085H90.0455L90.0442 35.0862Z" fill="white"/>
<path d="M110.069 35.331C108.652 35.331 107.43 35.085 106.401 34.5989C105.371 34.1103 104.516 33.4561 103.84 32.6338C103.165 31.8115 102.657 30.8904 102.327 29.8744C101.994 28.8547 101.829 27.8167 101.829 26.7544C101.829 25.6921 101.991 24.6602 102.312 23.649C102.634 22.6415 103.122 21.7205 103.78 20.8896C104.434 20.0588 105.271 19.3985 106.292 18.9099C107.313 18.4214 108.519 18.1777 109.912 18.1777C111.409 18.1777 112.731 18.5103 113.877 19.1767C115.021 19.8431 115.916 20.8153 116.561 22.0921C117.207 23.37 117.527 24.9574 117.527 26.8494V27.9118H106.007C106.071 29.0338 106.454 30.0084 107.163 30.8271C107.872 31.6494 108.839 32.06 110.065 32.06C110.774 32.06 111.357 31.9455 111.812 31.7176C112.268 31.4898 112.623 31.223 112.875 30.9233C113.123 30.6236 113.352 30.2508 113.562 29.8159H117.401C117.193 30.5445 116.947 31.184 116.668 31.7359C116.386 32.2878 115.975 32.8397 115.434 33.3891C114.895 33.941 114.186 34.4027 113.312 34.778C112.439 35.1532 111.356 35.3384 110.064 35.3384L110.068 35.3298L110.069 35.331ZM113.531 25.1914C113.468 23.9012 113.084 22.9449 112.376 22.3199C111.667 21.6961 110.837 21.3842 109.879 21.3842C108.817 21.3842 107.933 21.7229 107.226 22.3979C106.517 23.0728 106.112 24.006 106.007 25.1914H113.531Z" fill="white"/>
<path d="M126.87 18.2021C127.931 18.2021 128.805 18.3739 129.492 18.7174C130.179 19.061 130.704 19.4301 131.068 19.8249C131.433 20.2208 131.656 20.4913 131.74 20.6362H131.989V18.4238H136.489V35.0862H131.989V32.931H131.74C131.657 33.0772 131.433 33.3477 131.068 33.7424C130.704 34.1384 130.179 34.5075 129.492 34.8498C128.806 35.1934 127.931 35.3652 126.87 35.3652C125.642 35.3652 124.576 35.1203 123.672 34.6318C122.767 34.1432 122.013 33.4878 121.41 32.6655C120.806 31.8443 120.354 30.9233 120.053 29.9036C119.751 28.8852 119.601 27.8435 119.601 26.7836C119.601 25.7237 119.752 24.6821 120.053 23.6636C120.354 22.6452 120.807 21.7241 121.41 20.9018C122.013 20.0807 122.767 19.4253 123.672 18.9355C124.577 18.447 125.643 18.2021 126.87 18.2021ZM127.883 22.0409C126.949 22.0409 126.17 22.2748 125.545 22.7426C124.919 23.2104 124.452 23.8086 124.145 24.5371C123.838 25.2657 123.684 26.0149 123.684 26.7836C123.684 27.5524 123.838 28.3028 124.145 29.0301C124.452 29.7587 124.919 30.3568 125.545 30.8247C126.17 31.2925 126.949 31.5264 127.883 31.5264C128.816 31.5264 129.594 31.2925 130.22 30.8247C130.847 30.3568 131.313 29.7587 131.62 29.0301C131.927 28.3016 132.081 27.5536 132.081 26.7836C132.081 26.0137 131.927 25.2657 131.62 24.5371C131.313 23.8086 130.847 23.2104 130.22 22.7426C129.594 22.2748 128.815 22.0409 127.883 22.0409Z" fill="white"/>
<path d="M139.693 35.0862V18.4238H144.192V20.7946H144.348C144.701 20.1916 145.232 19.6141 145.939 19.0622C146.645 18.5116 147.613 18.235 148.841 18.235C150.069 18.235 151.092 18.5262 151.852 19.1085C152.611 19.6908 153.168 20.4084 153.521 21.2612H153.583C153.854 20.7824 154.212 20.3097 154.66 19.8419C155.107 19.3741 155.669 18.9891 156.345 18.687C157.021 18.3861 157.817 18.235 158.732 18.235C159.876 18.235 160.457 18.4957 161.206 19.0147C161.955 19.5349 162.511 20.2159 162.875 21.059C163.239 21.902 163.421 22.8011 163.421 23.7587V35.0862H159.044V24.9453C159.044 24.1339 158.841 23.4626 158.436 22.9327C158.03 22.4027 157.422 22.1371 156.611 22.1371C155.987 22.1371 155.361 22.2931 154.976 22.605C154.591 22.9168 154.309 23.3176 154.134 23.8062C153.957 24.2947 153.868 24.8003 153.868 25.3193V35.0862H149.369V24.9453C149.369 24.1339 149.167 23.4626 148.761 22.9327C148.356 22.4027 147.626 22.1371 146.815 22.1371C146.191 22.1371 145.685 22.2931 145.301 22.605C144.917 22.9168 144.635 23.3176 144.458 23.8062C144.282 24.2947 144.193 24.8003 144.193 25.3193V35.0862H139.693Z" fill="white"/>
<path d="M175.482 27.8021L180.266 35.0862H186.082L181.288 27.8021H175.482Z" fill="white"/>
<path d="M186.082 11.6953H180.266L175.477 18.9721L170.688 11.6953H164.904L172.576 23.3786L164.872 35.0862H170.688L175.482 27.8021L186.082 11.6953Z" fill="white"/>
</g>
<g clip-path="url(#clip1_84_7631)">
<path fill-rule="evenodd" clip-rule="evenodd" d="M23.3909 0.974619C11.0106 0.974619 0.974619 11.0106 0.974619 23.3909C0.974619 35.7712 11.0106 45.8071 23.3909 45.8071C35.7712 45.8071 45.8071 35.7712 45.8071 23.3909C45.8071 11.0106 35.7712 0.974619 23.3909 0.974619ZM0 23.3909C0 10.4723 10.4723 0 23.3909 0C36.3094 0 46.7817 10.4723 46.7817 23.3909C46.7817 36.3094 36.3094 46.7817 23.3909 46.7817C10.4723 46.7817 0 36.3094 0 23.3909Z" fill="white"/>
<path fill-rule="evenodd" clip-rule="evenodd" d="M0 23.3909L23.3909 0L46.7817 23.3909L23.3909 46.7817L0 23.3909ZM1.37832 23.3909L23.3909 45.4034L45.4034 23.3909L23.3909 1.37832L1.37832 23.3909Z" fill="white"/>
<path fill-rule="evenodd" clip-rule="evenodd" d="M3.12975 35.0887H43.6508L23.3909 0L3.12975 35.0887ZM9.4605 31.4339H37.3202L23.3908 7.3091L9.4605 31.4339Z" fill="white"/>
</g>
<defs>
<clipPath id="clip0_84_7631">
<rect width="127.604" height="36.3618" fill="white" transform="translate(58.4775 11.6953)"/>
</clipPath>
<clipPath id="clip1_84_7631">
<rect width="46.7817" height="46.7817" fill="white"/>
</clipPath>
</defs>
</svg>
